<mxfile host="65bd71144e">
    <diagram id="t7Rv8EtEnfFgDJbUtH6x" name="Page-1">
        <mxGraphModel dx="3260" dy="2709" grid="1" gridSize="10" guides="1" tooltips="1" connect="1" arrows="1" fold="1" page="1" pageScale="1" pageWidth="850" pageHeight="1100" background="#282c34" math="0" shadow="0">
            <root>
                <mxCell id="0"/>
                <mxCell id="1" parent="0"/>
                <mxCell id="2" value="&lt;font style=&quot;font-size: 20px;&quot;&gt;Data Read&lt;/font&gt;" style="rounded=1;whiteSpace=wrap;html=1;fillColor=#21252b;" parent="1" vertex="1">
                    <mxGeometry x="75" y="280" width="440" height="320" as="geometry"/>
                </mxCell>
                <mxCell id="3" value="&lt;font style=&quot;font-size: 20px;&quot;&gt;Tag Read / Way Select&lt;/font&gt;" style="rounded=1;whiteSpace=wrap;html=1;fillColor=#21252b;" parent="1" vertex="1">
                    <mxGeometry x="80" y="80" width="440" height="120" as="geometry"/>
                </mxCell>
                <mxCell id="7" value="&lt;font style=&quot;font-size: 20px;&quot;&gt;Data Format&lt;/font&gt;" style="rounded=1;whiteSpace=wrap;html=1;fillColor=#21252b;" parent="1" vertex="1">
                    <mxGeometry x="75" y="800" width="440" height="120" as="geometry"/>
                </mxCell>
                <mxCell id="8" value="" style="shape=flexArrow;endArrow=classic;html=1;fontSize=20;exitX=0.5;exitY=1;exitDx=0;exitDy=0;entryX=0.5;entryY=0;entryDx=0;entryDy=0;" parent="1" source="3" edge="1">
                    <mxGeometry width="50" height="50" relative="1" as="geometry">
                        <mxPoint x="-20" y="260" as="sourcePoint"/>
                        <mxPoint x="300" y="280.0000000000001" as="targetPoint"/>
                    </mxGeometry>
                </mxCell>
                <mxCell id="9" value="" style="shape=flexArrow;endArrow=classic;html=1;fontSize=20;" parent="1" target="7" edge="1">
                    <mxGeometry width="50" height="50" relative="1" as="geometry">
                        <mxPoint x="294" y="600" as="sourcePoint"/>
                        <mxPoint x="294.47" y="610" as="targetPoint"/>
                    </mxGeometry>
                </mxCell>
                <mxCell id="10" value="&lt;font style=&quot;font-size: 20px;&quot;&gt;PLRU Read&lt;/font&gt;" style="rounded=1;whiteSpace=wrap;html=1;fillColor=#21252b;" parent="1" vertex="1">
                    <mxGeometry x="-460" y="80" width="440" height="120" as="geometry"/>
                </mxCell>
                <mxCell id="11" value="" style="shape=flexArrow;endArrow=classic;html=1;fontSize=20;exitX=0.5;exitY=1;exitDx=0;exitDy=0;entryX=0.5;entryY=0;entryDx=0;entryDy=0;" parent="1" edge="1">
                    <mxGeometry width="50" height="50" relative="1" as="geometry">
                        <mxPoint x="299.33" as="sourcePoint"/>
                        <mxPoint x="299.33" y="80.00000000000011" as="targetPoint"/>
                    </mxGeometry>
                </mxCell>
                <mxCell id="12" value="&lt;font style=&quot;font-size: 20px;&quot;&gt;Cache Request&lt;/font&gt;" style="rounded=1;whiteSpace=wrap;html=1;fillColor=#21252b;" parent="1" vertex="1">
                    <mxGeometry x="-1000" y="-120" width="1520" height="120" as="geometry"/>
                </mxCell>
                <mxCell id="13" value="" style="shape=flexArrow;endArrow=classic;html=1;fontSize=20;exitX=0.5;exitY=1;exitDx=0;exitDy=0;entryX=0.5;entryY=0;entryDx=0;entryDy=0;" parent="1" edge="1">
                    <mxGeometry width="50" height="50" relative="1" as="geometry">
                        <mxPoint x="-240.66999999999996" as="sourcePoint"/>
                        <mxPoint x="-240.66999999999996" y="80" as="targetPoint"/>
                    </mxGeometry>
                </mxCell>
                <mxCell id="14" value="&lt;font style=&quot;font-size: 20px;&quot;&gt;Valid Read&lt;/font&gt;" style="rounded=1;whiteSpace=wrap;html=1;fillColor=#21252b;" parent="1" vertex="1">
                    <mxGeometry x="-1000" y="80" width="440" height="120" as="geometry"/>
                </mxCell>
                <mxCell id="15" value="" style="shape=flexArrow;endArrow=classic;html=1;fontSize=20;exitX=0.5;exitY=1;exitDx=0;exitDy=0;entryX=0.5;entryY=0;entryDx=0;entryDy=0;" parent="1" edge="1">
                    <mxGeometry width="50" height="50" relative="1" as="geometry">
                        <mxPoint x="-780.6700000000001" as="sourcePoint"/>
                        <mxPoint x="-780.6700000000001" y="80" as="targetPoint"/>
                    </mxGeometry>
                </mxCell>
                <mxCell id="16" value="&lt;font style=&quot;font-size: 20px;&quot;&gt;PLRU Update&lt;/font&gt;" style="rounded=1;whiteSpace=wrap;html=1;fillColor=#21252b;" parent="1" vertex="1">
                    <mxGeometry x="-460" y="280" width="440" height="120" as="geometry"/>
                </mxCell>
                <mxCell id="17" value="" style="shape=flexArrow;endArrow=classic;html=1;fontSize=20;exitX=0.5;exitY=1;exitDx=0;exitDy=0;entryX=0.5;entryY=0;entryDx=0;entryDy=0;" parent="1" edge="1">
                    <mxGeometry width="50" height="50" relative="1" as="geometry">
                        <mxPoint x="-240.67000000000007" y="199.99999999999977" as="sourcePoint"/>
                        <mxPoint x="-240.67000000000007" y="279.9999999999998" as="targetPoint"/>
                    </mxGeometry>
                </mxCell>
                <mxCell id="18" value="&lt;font style=&quot;font-size: 20px;&quot;&gt;Valid update&lt;/font&gt;" style="rounded=1;whiteSpace=wrap;html=1;fillColor=#21252b;" parent="1" vertex="1">
                    <mxGeometry x="-1000" y="280" width="440" height="120" as="geometry"/>
                </mxCell>
                <mxCell id="19" value="" style="shape=flexArrow;endArrow=classic;html=1;fontSize=20;exitX=0.5;exitY=1;exitDx=0;exitDy=0;entryX=0.5;entryY=0;entryDx=0;entryDy=0;" parent="1" edge="1">
                    <mxGeometry width="50" height="50" relative="1" as="geometry">
                        <mxPoint x="-780.6700000000001" y="199.99999999999977" as="sourcePoint"/>
                        <mxPoint x="-780.6700000000001" y="280" as="targetPoint"/>
                    </mxGeometry>
                </mxCell>
            </root>
        </mxGraphModel>
    </diagram>
</mxfile>